#!OML:ASF H:\BabyWalks\Project 1\Capture day 1\Session 1\baby.ASF
:FULLY-SPECIFIED
:DEGREES
1155
root 7.20946 17.6359 0.185346 -536.234 56.5118 -533.496
lowerback 19.0269 1.9884 5.55897
upperback 4.39675 4.01389 -1.19972
thorax -5.40957 2.07393 -5.38394
lowerneck 4.65891 15.4208 13.4912
upperneck -7.29256 20.8728 -17.9381
head 0.469813 10.7824 -7.08945
rclavicle 7.16619e-014 -4.85035e-014
rhumerus -44.7429 -4.27769 -76.2587
rradius 40.0786
rwrist 13.2542
rhand -0.846265 -14.8289
rfingers 7.12502
rthumb 24.7796 -43.2436
lclavicle 7.16619e-014 -4.85035e-014
lhumerus -26.5271 -27.2088 79.0745
lradius 79.6252
lwrist 12.105
lhand -10.2477 2.56121
lfingers 7.12502
lthumb 15.7452 31.9407
rfemur -8.67281 16.0869 17.8461
rtibia 23.0556
rfoot -14.0898 -0.425993
rtoes -15.0847
lfemur -15.7053 -18.2975 -12.6008
ltibia 34.4133
lfoot -19.9384 -21.3254
ltoes 2.57359
1156
root 7.26881 17.6257 0.233162 -537.02 55.4866 -534.284
lowerback 19.0938 1.95121 5.44976
upperback 4.48341 3.95882 -1.20818
thorax -5.36601 2.05784 -5.32028
lowerneck 4.686 15.2273 13.3982
upperneck -7.33939 20.6077 -17.9666
head 0.405789 10.6577 -7.11722
rclavicle 6.76862e-014 -1.19271e-014
rhumerus -44.5101 -5.49891 -75.5705
rradius 39.8295
rwrist 13.4758
rhand -2.05595 -14.7493
rfingers 7.12502
rthumb 23.6197 -43.3185
lclavicle 6.76862e-014 -1.19271e-014
lhumerus -26.86 -26.8521 79.3394
lradius 78.7274
lwrist 11.7716
lhand -10.3178 2.88986
lfingers 7.12502
lthumb 15.6776 32.2747
rfemur -8.46085 15.7696 17.8259
rtibia 23.6332
rfoot -14.4593 -1.15099
rtoes -14.4871
lfemur -15.7216 -18.7402 -12.8059
ltibia 34.3189
lfoot -19.8105 -21.9163
ltoes 2.95011
1157
root 7.32739 17.6184 0.28121 -537.667 54.4295 -534.954
lowerback 19.1309 1.90693 5.39625
upperback 4.56298 3.90413 -1.19834
thorax -5.31152 2.0412 -5.26679
lowerneck 4.73119 15.0299 13.315
upperneck -7.3985 20.3391 -18.028
head 0.339737 10.5333 -7.15747
rclavicle -1.87852e-014 6.16232e-015
rhumerus -44.2955 -6.73194 -74.8835
rradius 39.5969
rwrist 13.6214
rhand -3.32314 -14.6853
rfingers 7.12502
rthumb 22.4038 -43.406
lclavicle -1.87852e-014 6.16232e-015
lhumerus -27.206 -26.4624 79.6179
lradius 77.7077
lwrist 11.3992
lhand -10.3927 3.25368
lfingers 7.12502
lthumb 15.6055 32.6442
rfemur -8.27731 15.5295 17.8427
rtibia 24.177
rfoot -14.8335 -1.90581
rtoes -13.8811
lfemur -15.7831 -19.1674 -12.9495
ltibia 34.2124
lfoot -19.6264 -22.5168
ltoes 3.38099
1158
root 7.38483 17.6138 0.32902 -538.136 53.3535 -535.457
lowerback 19.1405 1.85225 5.4305
upperback 4.63286 3.8521 -1.16237
thorax -5.24846 2.02458 -5.23408
lowerneck 4.77475 14.8339 13.2445
upperneck -7.4455 20.0745 -18.1109
head 0.28179 10.4115 -7.20363
rclavicle -1.0953e-013 2.68359e-014
rhumerus -44.0877 -7.929 -74.2151
rradius 39.3701
rwrist 13.671
rhand -4.65126 -14.6436
rfingers 7.12502
rthumb 21.1285 -43.5124
lclavicle -1.0953e-013 2.68359e-014
lhumerus -27.5654 -26.0156 79.9014
lradius 76.5694
lwrist 10.9538
lhand -10.4269 3.63116
lfingers 7.12502
lthumb 15.5725 33.0242
rfemur -8.11849 15.3328 17.9306
rtibia 24.6543
rfoot -15.1565 -2.67713
rtoes -13.3145
lfemur -15.9036 -19.5608 -12.9945
ltibia 34.1202
lfoot -19.4032 -23.1219
ltoes 3.86122
1159
root 7.44041 17.6117 0.376368 -538.42 52.2641 -535.792
lowerback 19.1224 1.78625 5.55519
upperback 4.68631 3.80146 -1.0969
thorax -5.18426 2.00666 -5.22013
lowerneck 4.79797 14.644 13.1875
upperneck -7.45397 19.8207 -18.1998
head 0.241758 10.2934 -7.24788
rclavicle -1.61016e-014 -7.95139e-016
rhumerus -43.8793 -9.06971 -73.57
rradius 39.1401
rwrist 13.6282
rhand -6.0067 -14.6248
rfingers 7.12502
rthumb 19.8259 -43.6336
lclavicle -1.61016e-014 -7.95139e-016
lhumerus -27.9491 -25.5109 80.1909
lradius 75.3365
lwrist 10.4542
lhand -10.4405 4.06601
lfingers 7.12502
lthumb 15.5595 33.4601
rfemur -7.99021 15.1177 18.0888
rtibia 25.0419
rfoot -15.3982 -3.45303
rtoes -12.8419
lfemur -16.1046 -19.9091 -12.9301
ltibia 34.0597
lfoot -19.1534 -23.7283
ltoes 4.37727
1160
root 7.4941 17.6116 0.422802 -538.524 51.1845 -535.956
lowerback 19.0774 1.71321 5.76967
upperback 4.72525 3.75788 -0.997166
thorax -5.11712 1.9905 -5.22067
lowerneck 4.78995 14.4634 13.1436
upperneck -7.41576 19.582 -18.2906
head 0.223871 10.1805 -7.28751
rclavicle 3.26504e-014 -1.36167e-014
rhumerus -43.6546 -10.1168 -72.958
rradius 38.9021
rwrist 13.4965
rhand -7.36853 -14.6407
rfingers 7.12502
rthumb 18.5164 -43.7795
lclavicle 3.26504e-014 -1.36167e-014
lhumerus -28.3609 -24.9429 80.4842
lradius 74.0362
lwrist 9.91895
lhand -10.4519 4.57806
lfingers 7.12502
lthumb 15.5484 33.973
rfemur -7.88197 14.8574 18.3278
rtibia 25.3257
rfoot -15.5751 -4.24058
rtoes -12.6049
lfemur -16.3777 -20.1919 -12.7483
ltibia 34.037
lfoot -18.8907 -24.3265
ltoes 4.90813
